<?xml version="1.0" encoding="utf-8"?>

<!-- License Agreement at http://iconmonstr.com/license/ -->

<!DOCTYPE svg PUBLIC "-//W3C//DTD SVG 1.1//EN" "http://www.w3.org/Graphics/SVG/1.1/DTD/svg11.dtd">
<svg version="1.1" xmlns="http://www.w3.org/2000/svg" xmlns:xlink="http://www.w3.org/1999/xlink" x="0px" y="0px"
	 width="22px" height="22px" viewBox="0 0 512 512" enable-background="new 0 0 512 512" xml:space="preserve">
	 <style>
	path {fill:#89c7db;}
	</style>
<path id="barcode-9-icon" d="M217.95,90.021l187.464,187.281L277.377,405.339L90.013,217.867V90.021H217.95 M234.5,50.066H50
	v184.367l227.369,227.5L462,277.303L234.5,50.066z M130.761,176.284c-13.416-13.417-13.416-35.171,0-48.591
	c13.42-13.417,35.174-13.417,48.591,0c13.418,13.42,13.418,35.174,0,48.591C165.935,189.701,144.181,189.701,130.761,176.284z
	 M174.843,230.654l58.945-58.946l9.175,9.175l-58.946,58.944L174.843,230.654z M192.751,248.562l58.946-58.946l10.967,10.967
	l-58.946,58.945L192.751,248.562z M212.377,268.188l58.946-58.944l5.379,5.379l-58.946,58.946L212.377,268.188z M226.544,282.355
	l58.946-58.947l10.965,10.967l-58.946,58.946L226.544,282.355z M246.22,302.03l58.946-58.946l5.378,5.38l-58.946,58.946
	L246.22,302.03z M260.427,316.238l58.947-58.947l9.175,9.176l-58.947,58.947L260.427,316.238z M277.979,333.788l58.946-58.946
	l6.727,6.728l-58.947,58.946L277.979,333.788z"/>
</svg>
