<?xml version="1.0" encoding="utf-8"?>

<!-- The icon can be used freely in both personal and commercial projects with no attribution required, but always appreciated. 
You may NOT sub-license, resell, rent, redistribute or otherwise transfer the icon without express written permission from iconmonstr.com -->

<!DOCTYPE svg PUBLIC "-//W3C//DTD SVG 1.1//EN" "http://www.w3.org/Graphics/SVG/1.1/DTD/svg11.dtd">
<svg version="1.1" xmlns="http://www.w3.org/2000/svg" xmlns:xlink="http://www.w3.org/1999/xlink" x="0px" y="0px"
	 width="512px" height="512px" viewBox="0 0 512 512" enable-background="new 0 0 512 512" xml:space="preserve">
<path id="cloud-25-icon" style="fill: rgba(0, 0, 0, 0.8)" d="M409.338,216.254c-10.416-54.961-58.666-95.777-115.781-95.777c-35.098,0-67.631,15.285-89.871,41.584
	c-37.148-9.906-76.079,11.781-86.933,48.779C78.16,222.176,50.6,257.895,50.6,299.303c0,50.852,41.37,92.221,93.222,92.221H369.18
	c50.85,0,92.221-41.369,92.221-92.221C461.4,263.389,440.941,231.457,409.338,216.254z M369.18,351.523H143.821
	c-29.795,0-53.222-23.426-53.222-52.221c0-34.078,27.65-60.078,62.186-53.816c-11.536-39.596,44.131-61.93,64.641-32.348
	c5.157-14.582,25.823-52.662,76.131-52.662c38.027,0,77.361,26.08,78.664,84.982c25.363,0.098,49.18,18.432,49.18,53.844
	C421.4,328.098,397.975,351.523,369.18,351.523z M248.105,322.5c-19.184-22.593-31.987-36.996-55.547-58.833l11.78-10.892
	c13.781,6.668,22.52,11.741,38.008,22.782c29.118-33.043,48.358-49.807,84.121-72.058l3.835,8.816
	C300.81,238.055,279.209,266.722,248.105,322.5z"/>
</svg>
