<?xml version="1.0" encoding="utf-8"?>
<!-- Generator: Adobe Illustrator 16.2.1, SVG Export Plug-In . SVG Version: 6.00 Build 0)  -->
<!DOCTYPE svg PUBLIC "-//W3C//DTD SVG 1.1//EN" "http://www.w3.org/Graphics/SVG/1.1/DTD/svg11.dtd">
<svg version="1.1" id="Layer_1" xmlns="http://www.w3.org/2000/svg" xmlns:xlink="http://www.w3.org/1999/xlink" x="0px" y="0px"
	 width="110px" height="54px" viewBox="0 0 700 182.249" enable-background="new 0 0 700 182.249" xml:space="preserve">
<g>
	<g>
		<polygon fill="#87C7D8" points="447.36,11.493 447.36,179.531 549.29,179.531 549.262,169.337 459.008,169.337 459.008,11.493 		
			"/>
	</g>
	<path fill="#87C7D8" d="M510.534,17.919v106.379l21.842-18.567l21.842,18.567V15.85c0-16.874-46.164-22.173-54.262-6.502
		C509.965,9.53,510.534,17.919,510.534,17.919z"/>
	<path fill="#FFFFFF" d="M10.812,11.417l96.825,148.486V11.417h10.571v168.19h-10.571L10.812,30.88v148.728H0V11.417H10.812z"/>
	<path fill="#FFFFFF" d="M163.341,57.792c0-33.877,20.183-50.216,50.937-50.216c32.195,0,49.975,19.459,49.975,50.454v77.126
		c0,35.322-26.43,47.092-50.216,47.092c-23.786,0-50.696-11.771-50.696-47.092V57.792z M174.153,135.156
		c0,25.709,18.98,36.76,39.642,36.76c20.904,0,39.887-9.851,39.887-36.998V56.11c0-24.989-15.618-38.205-39.887-38.205
		c-24.265,0-39.642,13.215-39.642,38.205V135.156z"/>
	<path fill="#FFFFFF" d="M306.407,11.417l45.893,154.734l45.889-154.734l11.533,0.003l-49.976,168.187H345.09l-50.216-168.19
		H306.407z"/>
	<path fill="#FFFFFF" d="M654.112,11.417c32.193,0,45.65,21.627,45.65,51.419c0,15.86-1.07,41.566-23.416,51.419L700,179.607
		h-11.053l-24.025-61.99c-2.643,0.242-5.768,0.483-8.648,0.483h-49.977v61.507h-10.812V11.417H654.112z M606.297,107.526h49.014
		c30.754,0,33.637-28.109,33.637-44.689c0-27.389-12.975-41.086-34.357-41.086h-48.293V107.526z"/>
</g>
</svg>
